<svg fill="none" xmlns="http://www.w3.org/2000/svg" viewBox="0 0 8 10"><path d="M7.473 5.848c-.042.044-.202.23-.351.383-.874.962-3.154 2.537-4.347 3.018-.181.077-.64.24-.884.251a1.45 1.45 0 0 1-.671-.164 1.405 1.405 0 0 1-.597-.678c-.075-.197-.192-.787-.192-.797C.314 7.215.25 6.165.25 5.005c0-1.105.064-2.111.16-2.767.011-.01.128-.744.256-.995A1.339 1.339 0 0 1 1.849.5h.042c.32.011.99.296.99.307 1.13.481 3.357 1.979 4.252 2.974 0 0 .252.256.361.416.171.23.256.513.256.798 0 .317-.096.612-.277.853Z" fill="currentColor"/></svg>
