<svg width="18" height="18" viewBox="0 0 18 18" fill="currentColor" xmlns="http://www.w3.org/2000/svg"><path d="M2.136 2.136C3.56.712 5.276 0 7.284 0c2.008 0 3.724.712 5.148 2.136 1.424 1.424 2.136 3.14 2.136 5.148 0 1.704-.537 3.234-1.61 4.588l4.797 4.797c.163.14.245.321.245.543a.762.762 0 01-.228.56.762.762 0 01-.56.228.682.682 0 01-.543-.245l-4.797-4.798c-1.354 1.074-2.884 1.611-4.588 1.611-2.008 0-3.724-.712-5.148-2.136C.712 11.008 0 9.292 0 7.284 0 5.276.712 3.56 2.136 2.136zm.806 9.526c1.19 1.19 2.638 1.785 4.342 1.785 1.704 0 3.158-.6 4.36-1.803 1.202-1.202 1.803-2.656 1.803-4.36 0-1.704-.6-3.158-1.803-4.36-1.202-1.202-2.656-1.803-4.36-1.803-1.704 0-3.158.6-4.36 1.803-1.202 1.202-1.803 2.656-1.803 4.36 0 1.704.607 3.163 1.82 4.378z" /></svg>
